<?xml version="1.0" standalone="no"?>
<!DOCTYPE svg PUBLIC "-//W3C//DTD SVG 20010904//EN"
 "http://www.w3.org/TR/2001/REC-SVG-20010904/DTD/svg10.dtd">
<svg version="1.0" xmlns="http://www.w3.org/2000/svg"
 width="1448.000000pt" height="1448.000000pt" viewBox="0 0 1448.000000 1448.000000"
 preserveAspectRatio="xMidYMid meet">
<metadata>
Created by potrace 1.11, written by Peter Selinger 2001-2013
</metadata>
<g transform="translate(0.000000,1448.000000) scale(0.100000,-0.100000)"
fill="#000000" stroke="none">
<path d="M5463 13212 c-18 -9 -33 -23 -33 -29 0 -7 -8 -13 -19 -13 -10 0 -30
-11 -44 -24 -15 -14 -35 -27 -47 -31 -11 -3 -26 -12 -32 -18 -7 -7 -44 -32
-83 -56 -38 -25 -76 -50 -83 -58 -7 -7 -20 -13 -28 -13 -8 0 -14 -4 -14 -10 0
-5 -6 -10 -14 -10 -8 0 -16 -5 -18 -11 -2 -5 -12 -11 -21 -13 -10 -1 -22 -7
-25 -13 -4 -6 -38 -29 -75 -52 -87 -53 -208 -133 -268 -177 -26 -19 -49 -34
-53 -34 -3 0 -37 -22 -76 -50 -39 -27 -73 -50 -76 -50 -3 0 -20 -10 -37 -23
-18 -12 -39 -27 -48 -32 -28 -17 -102 -66 -161 -106 -32 -22 -62 -39 -67 -39
-5 0 -11 -3 -13 -7 -5 -11 -97 -73 -108 -73 -6 0 -10 -4 -10 -10 0 -5 -5 -10
-11 -10 -6 0 -25 -11 -43 -25 -18 -14 -38 -25 -44 -25 -6 0 -12 -3 -14 -7 -5
-11 -97 -73 -108 -73 -6 0 -10 -4 -10 -10 0 -5 -5 -10 -10 -10 -6 0 -16 -5
-23 -10 -18 -16 -225 -153 -248 -165 -10 -5 -19 -13 -19 -17 0 -5 -5 -8 -10
-8 -6 0 -16 -5 -23 -10 -25 -23 -178 -120 -187 -120 -6 0 -10 -4 -10 -8 0 -4
-27 -24 -60 -43 -33 -18 -60 -38 -60 -42 0 -5 -4 -6 -9 -2 -6 3 -13 0 -18 -7
-9 -14 -82 -65 -125 -87 -16 -7 -28 -17 -28 -22 0 -5 -5 -9 -12 -9 -6 0 -26
-11 -44 -25 -18 -14 -35 -25 -38 -25 -7 0 -95 -60 -120 -82 -11 -10 -23 -18
-28 -18 -4 0 -27 -13 -50 -30 -22 -16 -47 -30 -55 -30 -7 0 -13 -4 -13 -8 0
-5 -12 -15 -27 -23 -16 -8 -30 -16 -33 -19 -12 -14 -131 -90 -139 -90 -5 0
-11 -3 -13 -7 -1 -5 -32 -27 -68 -51 -36 -23 -72 -47 -80 -52 -172 -117 -254
-170 -261 -170 -5 0 -9 -4 -9 -10 0 -5 -6 -10 -14 -10 -8 0 -16 -3 -18 -7 -5
-11 -97 -73 -108 -73 -6 0 -10 -4 -10 -10 0 -5 -6 -10 -14 -10 -8 0 -16 -3
-18 -8 -1 -4 -34 -27 -73 -52 -38 -24 -72 -47 -75 -50 -3 -3 -48 -33 -100 -65
-52 -33 -96 -63 -98 -67 -2 -4 -7 -8 -12 -8 -10 0 -134 -82 -138 -92 -2 -4 -7
-8 -12 -8 -4 0 -43 -25 -86 -55 -44 -30 -92 -61 -109 -69 -33 -16 -16 32 -215
-601 -93 -296 -326 -1049 -346 -1120 -19 -66 -37 -258 -30 -315 3 -25 -8 -508
-25 -1075 -17 -566 -35 -1169 -39 -1340 -6 -206 -6 -345 1 -415 6 -58 8 -163
5 -235 -3 -71 -8 -310 -11 -530 -3 -220 -10 -620 -15 -888 -13 -668 -13 -888
0 -939 14 -50 197 -661 210 -698 4 -14 20 -65 35 -115 15 -49 31 -101 35 -115
5 -14 16 -52 25 -85 9 -33 21 -69 25 -80 5 -11 15 -42 23 -70 75 -254 122
-382 151 -412 l31 -32 2220 0 c1221 0 2231 0 2245 0 99 1 3011 0 3032 0 15 -1
38 -5 51 -10 14 -6 314 -8 713 -5 379 2 1633 6 2786 8 1153 2 2104 6 2112 9
11 4 14 17 10 49 -2 24 -6 160 -9 303 -3 143 -7 310 -10 370 -5 127 -12 329
-21 565 -3 91 -7 206 -9 255 -2 50 -4 100 -4 112 -1 20 -6 22 -38 21 -21 -1
-66 1 -100 5 -33 3 -96 7 -140 8 -43 1 -82 4 -88 7 -11 7 -30 9 -168 16 -60 3
-112 8 -116 10 -3 3 -51 7 -106 10 -96 6 -158 11 -275 22 -69 6 -154 13 -250
19 -41 3 -97 7 -125 9 -47 4 -153 12 -270 21 -27 2 -87 7 -133 10 -45 3 -99 7
-120 10 -20 2 -80 7 -132 10 -52 3 -108 7 -125 9 -16 2 -61 7 -100 11 -38 4
-79 9 -90 11 -41 8 -93 13 -180 20 -49 3 -106 8 -125 9 -19 2 -73 6 -120 9
-47 4 -103 8 -125 11 -22 2 -78 7 -125 10 -47 4 -101 8 -120 9 -19 2 -75 7
-125 10 -49 4 -109 9 -132 11 -22 3 -83 7 -135 10 -51 3 -104 7 -118 10 -14 3
-56 7 -95 10 -38 3 -95 11 -125 18 l-55 12 -2 105 c-6 330 -14 765 -18 970 -2
129 -7 370 -10 535 -10 555 -16 899 -21 1120 -2 121 -6 450 -8 732 -2 281 -6
515 -8 520 -2 4 -5 159 -7 343 -1 296 -4 336 -18 353 -14 15 -15 20 -4 27 8 4
26 4 40 -1 58 -19 328 -102 356 -109 17 -5 50 -15 75 -23 25 -8 74 -24 110
-35 63 -19 165 -50 413 -127 l119 -37 91 21 c116 27 96 22 332 80 695 170
1311 322 1375 340 101 27 604 155 710 181 47 11 106 28 132 36 26 9 54 17 63
18 38 6 39 15 27 328 -7 167 -17 474 -23 683 -6 209 -14 407 -17 439 -6 52
-10 60 -32 66 -14 4 -371 179 -795 390 -423 210 -846 420 -940 465 -214 103
-1309 629 -1760 845 -187 89 -361 173 -387 185 l-48 23 -49 -23 c-26 -13 -61
-37 -77 -52 -16 -16 -37 -32 -46 -36 -10 -3 -18 -11 -18 -17 0 -5 -8 -10 -18
-10 -10 0 -22 -4 -27 -9 -6 -4 -46 -23 -90 -41 -44 -18 -103 -43 -132 -56 -28
-13 -57 -24 -62 -24 -6 0 -19 -4 -29 -9 -22 -12 -129 -61 -162 -74 -25 -10
-58 -24 -122 -51 -18 -7 -53 -23 -78 -34 -52 -25 -177 -77 -233 -98 -21 -8
-72 -30 -113 -50 -42 -20 -82 -33 -89 -30 -8 3 -17 1 -20 -5 -4 -5 -10 -7 -14
-4 -5 2 -25 -4 -46 -15 -21 -11 -41 -17 -45 -15 -4 3 -7 172 -8 377 0 205 -1
387 -1 404 -1 27 -7 34 -38 47 -34 13 -128 57 -320 148 -35 16 -65 29 -67 29
-3 0 -71 32 -151 70 -80 39 -148 70 -149 70 -6 0 -192 87 -341 160 -77 38
-214 102 -305 143 -91 41 -223 103 -295 137 -232 111 -319 152 -385 183 -36
16 -134 63 -218 103 -84 41 -155 74 -158 74 -2 0 -55 24 -117 54 -216 104
-289 136 -305 135 -10 0 -32 -8 -49 -17z m60 -2073 c20 -20 21 -21 2 -14 -11
4 -25 8 -32 8 -6 0 -9 6 -6 14 7 17 10 17 36 -8z m1022 -1786 c-5 -10 -20 -52
-36 -93 -41 -113 -195 -448 -214 -466 -21 -21 -68 -123 -67 -146 0 -9 -5 -19
-13 -22 -11 -4 -13 -423 -14 -2486 -1 -1511 2 -2487 8 -2494 5 -6 11 -30 15
-53 4 -35 2 -43 -14 -48 -22 -7 -264 2 -415 16 -130 12 -348 15 -460 6 -482
-38 -599 -50 -950 -92 -66 -8 -163 -19 -215 -25 -52 -6 -188 -22 -301 -35
-114 -14 -214 -25 -222 -25 -12 0 -14 12 -11 68 2 37 5 311 8 609 2 298 6 546
9 551 3 4 2 105 -2 223 -4 118 -6 217 -4 221 2 4 6 362 9 795 5 875 10 1152
21 1324 8 122 8 810 0 915 l-5 62 66 30 c157 71 345 152 352 152 8 0 93 39
142 66 14 8 31 14 37 14 5 0 43 16 84 35 41 19 79 35 85 35 11 0 136 52 217
90 22 10 108 46 190 80 156 64 240 99 314 132 24 10 71 30 105 42 70 27 200
81 332 137 50 21 95 39 99 39 3 0 39 14 78 31 40 16 81 34 92 39 11 4 39 15
62 24 40 15 85 34 178 77 78 35 113 49 125 49 7 0 31 8 54 19 148 67 232 106
241 113 16 14 27 9 20 -9z"/>
</g>
</svg>
